{
    "asset": {
        "generator": "FBX2glTF v0.9.7",
        "version": "2.0"
    },
    "scene": 0,
    "buffers": [
        {
            "byteLength": 192392,
            "uri": "buffer.bin"
        }
    ],
    "bufferViews": [
        {
            "buffer": 0,
            "byteLength": 160,
            "byteOffset": 0
        },
        {
            "buffer": 0,
            "byteLength": 640,
            "byteOffset": 160
        },
        {
            "buffer": 0,
            "byteLength": 480,
            "byteOffset": 800
        },
        {
            "buffer": 0,
            "byteLength": 640,
            "byteOffset": 1280
        },
        {
            "buffer": 0,
            "byteLength": 640,
            "byteOffset": 1920
        },
        {
            "buffer": 0,
            "byteLength": 640,
            "byteOffset": 2560
        },
        {
            "buffer": 0,
            "byteLength": 640,
            "byteOffset": 3200
        },
        {
            "buffer": 0,
            "byteLength": 640,
            "byteOffset": 3840
        },
        {
            "buffer": 0,
            "byteLength": 640,
            "byteOffset": 4480
        },
        {
            "buffer": 0,
            "byteLength": 640,
            "byteOffset": 5120
        },
        {
            "buffer": 0,
            "byteLength": 11736,
            "byteOffset": 5760,
            "target": 34963
        },
        {
            "buffer": 0,
            "byteLength": 37368,
            "byteOffset": 17496,
            "target": 34962
        },
        {
            "buffer": 0,
            "byteLength": 37368,
            "byteOffset": 54864,
            "target": 34962
        },
        {
            "buffer": 0,
            "byteLength": 24912,
            "byteOffset": 92232,
            "target": 34962
        },
        {
            "buffer": 0,
            "byteLength": 24912,
            "byteOffset": 117144,
            "target": 34962
        },
        {
            "buffer": 0,
            "byteLength": 49824,
            "byteOffset": 142056,
            "target": 34962
        },
        {
            "buffer": 0,
            "byteLength": 512,
            "byteOffset": 191880
        }
    ],
    "scenes": [
        {
            "name": "Root Scene",
            "nodes": [
                0
            ]
        }
    ],
    "accessors": [
        {
            "componentType": 5126,
            "type": "SCALAR",
            "count": 40,
            "bufferView": 0,
            "byteOffset": 0,
            "min": [
                0.0
            ],
            "max": [
                1.625
            ]
        },
        {
            "componentType": 5126,
            "type": "VEC4",
            "count": 40,
            "bufferView": 1,
            "byteOffset": 0
        },
        {
            "componentType": 5126,
            "type": "VEC3",
            "count": 40,
            "bufferView": 2,
            "byteOffset": 0
        },
        {
            "componentType": 5126,
            "type": "VEC4",
            "count": 40,
            "bufferView": 3,
            "byteOffset": 0
        },
        {
            "componentType": 5126,
            "type": "VEC4",
            "count": 40,
            "bufferView": 4,
            "byteOffset": 0
        },
        {
            "componentType": 5126,
            "type": "VEC4",
            "count": 40,
            "bufferView": 5,
            "byteOffset": 0
        },
        {
            "componentType": 5126,
            "type": "VEC4",
            "count": 40,
            "bufferView": 6,
            "byteOffset": 0
        },
        {
            "componentType": 5126,
            "type": "VEC4",
            "count": 40,
            "bufferView": 7,
            "byteOffset": 0
        },
        {
            "componentType": 5126,
            "type": "VEC4",
            "count": 40,
            "bufferView": 8,
            "byteOffset": 0
        },
        {
            "componentType": 5126,
            "type": "VEC4",
            "count": 40,
            "bufferView": 9,
            "byteOffset": 0
        },
        {
            "componentType": 5123,
            "type": "SCALAR",
            "count": 5868,
            "bufferView": 10,
            "byteOffset": 0
        },
        {
            "componentType": 5126,
            "type": "VEC3",
            "count": 3114,
            "bufferView": 11,
            "byteOffset": 0,
            "min": [
                -0.0106380200013518,
                -0.0286812707781792,
                6.23000005361973e-06
            ],
            "max": [
                0.0106380200013518,
                0.0158278197050095,
                0.0387348495423794
            ]
        },
        {
            "componentType": 5126,
            "type": "VEC3",
            "count": 3114,
            "bufferView": 12,
            "byteOffset": 0
        },
        {
            "componentType": 5126,
            "type": "VEC2",
            "count": 3114,
            "bufferView": 13,
            "byteOffset": 0
        },
        {
            "componentType": 5123,
            "type": "VEC4",
            "count": 3114,
            "bufferView": 14,
            "byteOffset": 0
        },
        {
            "componentType": 5126,
            "type": "VEC4",
            "count": 3114,
            "bufferView": 15,
            "byteOffset": 0
        },
        {
            "componentType": 5126,
            "type": "MAT4",
            "count": 8,
            "bufferView": 16,
            "byteOffset": 0
        }
    ],
    "images": [
        {
            "name": "ChickenbotDiffuse.png",
            "uri": "ChickenbotDiffuse.png"
        }
    ],
    "samplers": [
        {}
    ],
    "textures": [
        {
            "name": "ChickenbotDiffuse_png",
            "sampler": 0,
            "source": 0
        }
    ],
    "materials": [
        {
            "name": "None__ChickenbotDiffuse_png",
            "alphaMode": "BLEND",
            "extras": {
                "fromFBX": {
                    "shadingModel": "Phong",
                    "isTruePBR": false
                }
            },
            "pbrMetallicRoughness": {
                "baseColorTexture": {
                    "index": 0,
                    "texCoord": 0
                },
                "baseColorFactor": [
                    1.0,
                    1.0,
                    1.0,
                    1.0
                ],
                "metallicFactor": 0.400000005960464,
                "roughnessFactor": 0.373978793621063
            }
        }
    ],
    "meshes": [
        {
            "name": "Chickenbot",
            "primitives": [
                {
                    "material": 0,
                    "mode": 4,
                    "attributes": {
                        "JOINTS_0": 14,
                        "NORMAL": 12,
                        "POSITION": 11,
                        "TEXCOORD_0": 13,
                        "WEIGHTS_0": 15
                    },
                    "indices": 10
                }
            ]
        }
    ],
    "skins": [
        {
            "joints": [
                4,
                8,
                9,
                10,
                5,
                6,
                7,
                11
            ],
            "inverseBindMatrices": 16,
            "skeleton": 4
        }
    ],
    "animations": [
        {
            "name": "Take 001",
            "channels": [
                {
                    "sampler": 0,
                    "target": {
                        "node": 3,
                        "path": "rotation"
                    }
                },
                {
                    "sampler": 1,
                    "target": {
                        "node": 4,
                        "path": "translation"
                    }
                },
                {
                    "sampler": 2,
                    "target": {
                        "node": 4,
                        "path": "rotation"
                    }
                },
                {
                    "sampler": 3,
                    "target": {
                        "node": 5,
                        "path": "rotation"
                    }
                },
                {
                    "sampler": 4,
                    "target": {
                        "node": 6,
                        "path": "rotation"
                    }
                },
                {
                    "sampler": 5,
                    "target": {
                        "node": 7,
                        "path": "rotation"
                    }
                },
                {
                    "sampler": 6,
                    "target": {
                        "node": 8,
                        "path": "rotation"
                    }
                },
                {
                    "sampler": 7,
                    "target": {
                        "node": 9,
                        "path": "rotation"
                    }
                },
                {
                    "sampler": 8,
                    "target": {
                        "node": 10,
                        "path": "rotation"
                    }
                }
            ],
            "samplers": [
                {
                    "input": 0,
                    "interpolation": "LINEAR",
                    "output": 1
                },
                {
                    "input": 0,
                    "interpolation": "LINEAR",
                    "output": 2
                },
                {
                    "input": 0,
                    "interpolation": "LINEAR",
                    "output": 3
                },
                {
                    "input": 0,
                    "interpolation": "LINEAR",
                    "output": 4
                },
                {
                    "input": 0,
                    "interpolation": "LINEAR",
                    "output": 5
                },
                {
                    "input": 0,
                    "interpolation": "LINEAR",
                    "output": 6
                },
                {
                    "input": 0,
                    "interpolation": "LINEAR",
                    "output": 7
                },
                {
                    "input": 0,
                    "interpolation": "LINEAR",
                    "output": 8
                },
                {
                    "input": 0,
                    "interpolation": "LINEAR",
                    "output": 9
                }
            ]
        }
    ],
    "nodes": [
        {
            "name": "RootNode",
            "translation": [
                0.0,
                0.0,
                0.0
            ],
            "rotation": [
                0.0,
                0.0,
                0.0,
                1.0
            ],
            "scale": [
                1.0,
                1.0,
                1.0
            ],
            "children": [
                1,
                2
            ]
        },
        {
            "name": "Chickenbot",
            "translation": [
                0.0,
                0.0,
                0.0
            ],
            "rotation": [
                2.1855694143369e-08,
                0.0,
                0.0,
                1.0
            ],
            "scale": [
                1.0,
                1.0,
                1.0
            ],
            "mesh": 0,
            "skin": 0
        },
        {
            "name": "chicken_rig",
            "translation": [
                0.0,
                0.0,
                0.0
            ],
            "rotation": [
                -0.70710676908493,
                -0.0,
                0.0,
                0.70710676908493
            ],
            "scale": [
                1.0,
                1.0,
                1.0
            ],
            "children": [
                3
            ]
        },
        {
            "name": "root",
            "translation": [
                0.0,
                0.0,
                0.0
            ],
            "rotation": [
                0.50000011920929,
                -0.49999988079071,
                0.5,
                0.499999970197678
            ],
            "scale": [
                1.0,
                1.0,
                1.0
            ],
            "children": [
                4,
                12
            ]
        },
        {
            "name": "Bone",
            "translation": [
                0.0243489854037762,
                -0.00259556295350194,
                1.23766163984129e-09
            ],
            "rotation": [
                1.13126010430975e-14,
                3.55848324372072e-15,
                -0.0568692199885845,
                0.998381614685059
            ],
            "scale": [
                1.0,
                1.0,
                1.0
            ],
            "children": [
                5,
                8,
                11
            ]
        },
        {
            "name": "Bone_L",
            "translation": [
                2.98333161481423e-05,
                -0.00856776349246502,
                0.000246768962824717
            ],
            "rotation": [
                -0.284393906593323,
                0.64717572927475,
                0.646073222160339,
                0.287876754999161
            ],
            "scale": [
                1.0,
                1.0,
                1.0
            ],
            "children": [
                6
            ]
        },
        {
            "name": "Bone_L_001",
            "translation": [
                0.0159017257392406,
                4.76837147544984e-09,
                1.11022299980974e-18
            ],
            "rotation": [
                -0.50370317697525,
                -0.49626898765564,
                0.496269643306732,
                0.503702938556671
            ],
            "scale": [
                1.0,
                1.0,
                1.0
            ],
            "children": [
                7
            ]
        },
        {
            "name": "Bone_L_002",
            "translation": [
                0.0143086742609739,
                5.9604643443123e-10,
                1.19209286886246e-09
            ],
            "rotation": [
                0.933769106864929,
                0.0554933659732342,
                -0.35290652513504,
                -0.0212772153317928
            ],
            "scale": [
                1.0,
                1.0,
                0.999998986721039
            ]
        },
        {
            "name": "Bone_R",
            "translation": [
                2.98333161481423e-05,
                0.00856776256114244,
                0.000246762298047543
            ],
            "rotation": [
                -0.254720091819763,
                -0.659635365009308,
                0.659638822078705,
                -0.254706740379333
            ],
            "scale": [
                1.0,
                1.0,
                1.0
            ],
            "children": [
                9
            ]
        },
        {
            "name": "Bone_R_001",
            "translation": [
                0.0159017257392406,
                2.38418573772492e-09,
                0.0
            ],
            "rotation": [
                0.549178183078766,
                -0.445424944162369,
                -0.445425510406494,
                0.549177646636963
            ],
            "scale": [
                1.0,
                1.0,
                1.0
            ],
            "children": [
                10
            ]
        },
        {
            "name": "Bone_R_002",
            "translation": [
                0.0143086742609739,
                1.78813930329369e-09,
                2.23517412911711e-10
            ],
            "rotation": [
                0.949887454509735,
                0.0541163235902786,
                -0.307373702526093,
                -0.0175125487148762
            ],
            "scale": [
                1.0,
                1.0,
                0.999998986721039
            ]
        },
        {
            "name": "Bone_001",
            "translation": [
                0.00364910112693906,
                5.9604643443123e-10,
                0.00299031031318009
            ],
            "rotation": [
                0.70710688829422,
                1.31708858930324e-07,
                0.707106649875641,
                -1.31708901562888e-07
            ],
            "scale": [
                1.0,
                1.0,
                1.0
            ]
        },
        {
            "name": "ik_root",
            "translation": [
                -2.38418573772492e-09,
                -1.79999980535916e-16,
                -8.07793548890723e-30
            ],
            "rotation": [
                1.42108496330043e-14,
                -1.02921660116867e-28,
                -7.105427357601e-15,
                1.0
            ],
            "scale": [
                1.0,
                1.0,
                1.0
            ],
            "children": [
                13,
                14
            ]
        },
        {
            "name": "ikTarget_R",
            "translation": [
                0.00213160505518317,
                0.00856776535511017,
                -0.00205782521516085
            ],
            "rotation": [
                -2.6692557497654e-08,
                0.707106649875641,
                2.66925503922266e-08,
                0.70710688829422
            ],
            "scale": [
                1.0,
                1.0,
                1.0
            ]
        },
        {
            "name": "ikTarget_L",
            "translation": [
                0.00213160645216703,
                -0.00856776349246502,
                -0.00205782102420926
            ],
            "rotation": [
                -2.6692557497654e-08,
                0.707106649875641,
                2.66925503922266e-08,
                0.70710688829422
            ],
            "scale": [
                1.0,
                1.0,
                1.0
            ]
        }
    ]
}